<svg xmlns="http://www.w3.org/2000/svg" width="256" height="640" viewBox="0 0 256 640" role="img"><g transform="translate(256 0) scale(-1 1)"><polygon points="91,349 170,349 181,389 150,402 124,394 96,403 76,391" fill="#8BB4D8" stroke="#111318" stroke-width="3"/><polygon points="76,386 126,391 118,591 70,591 68,430" fill="#8BB4D8" stroke="#111318" stroke-width="3"/><polygon points="128,391 179,385 194,592 140,592 140,430" fill="#8BB4D8" stroke="#111318" stroke-width="3"/><polyline points="91,360 171,360" fill="none" stroke="#5C82A6" stroke-width="2"/><polyline points="129,360 129,398" fill="none" stroke="#5C82A6" stroke-width="2"/><polygon points="98,368 122,371 120,395 99,392" fill="#8BB4D8" stroke="#5C82A6" stroke-width="2"/><polygon points="141,371 165,368 165,392 143,395" fill="#8BB4D8" stroke="#5C82A6" stroke-width="2"/><polyline points="70,586 118,586" fill="none" stroke="#5C82A6" stroke-width="2"/><polyline points="141,587 193,587" fill="none" stroke="#5C82A6" stroke-width="2"/></g></svg>