<svg xmlns="http://www.w3.org/2000/svg" width="256" height="640" viewBox="0 0 256 640" role="img">
<defs><mask id="neck"><rect width="256" height="640" fill="white"/><ellipse cx="134.5" cy="161" rx="23.5" ry="16" fill="black"/></mask></defs>
<g mask="url(#neck)"><polygon points="86,164 111,151 135,157 161,154 188,169 184,358 77,358" fill="#F8F3E7" stroke="#111318" stroke-width="3" stroke-linejoin="round"/><polygon points="86,164 67,174 58,238 80,244 92,204" fill="#F8F3E7" stroke="#111318" stroke-width="3" stroke-linejoin="round"/><polygon points="188,169 203,181 212,239 190,243 177,207" fill="#F8F3E7" stroke="#111318" stroke-width="3" stroke-linejoin="round"/></g><path d="M 111 161.0 A 23.5 16.0 0 0 0 158 161.0" fill="none" stroke="#26354D" stroke-width="5" stroke-linecap="round"/><polyline points="60,231 81,237" fill="none" stroke="#26354D" stroke-width="6" stroke-linecap="round" stroke-linejoin="round"/><polyline points="190,237 210,232" fill="none" stroke="#26354D" stroke-width="6" stroke-linecap="round" stroke-linejoin="round"/><polyline points="78,354 184,354" fill="none" stroke="#111318" stroke-width="3" stroke-linecap="round" stroke-linejoin="round"/>
</svg>
